REM DIRINDEX 1\2,1\3,1\4,1\5
REM DIRNAME cjc004,folder01,folder02,folder03,folder04
TITLE ""
FILE "1Q_t_1829-1838.mp3" MP3
  TRACK 01 AUDIO
    TITLE "3:cjc004_6394"
    INDEX 01 00:00:00
  TRACK 02 AUDIO
    TITLE "0:"
    INDEX 01 00:00:64
  TRACK 03 AUDIO
    TITLE "4:cjc004_6395"
    INDEX 01 00:01:22
  TRACK 04 AUDIO
    TITLE "0:"
    INDEX 01 00:02:43
  TRACK 05 AUDIO
    TITLE "5:cjc004_6396"
    INDEX 01 00:02:67
  TRACK 06 AUDIO
    TITLE "0:"
    INDEX 01 00:07:25
  TRACK 07 AUDIO
    TITLE "3:cjc004_6397"
    INDEX 01 00:08:05
  TRACK 08 AUDIO
    TITLE "0:"
    INDEX 01 00:09:36
  TRACK 09 AUDIO
    TITLE "4:cjc004_6398"
    INDEX 01 00:09:63
  TRACK 10 AUDIO
    TITLE "0:"
    INDEX 01 00:10:72
  TRACK 11 AUDIO
    TITLE "5:cjc004_6399"
    INDEX 01 00:11:25
  TRACK 12 AUDIO
    TITLE "0:"
    INDEX 01 00:16:18
  TRACK 13 AUDIO
    TITLE "3:cjc004_6400"
    INDEX 01 00:16:69
  TRACK 14 AUDIO
    TITLE "0:"
    INDEX 01 00:18:13
  TRACK 15 AUDIO
    TITLE "4:cjc004_6401"
    INDEX 01 00:18:44
  TRACK 16 AUDIO
    TITLE "0:"
    INDEX 01 00:19:42
  TRACK 17 AUDIO
    TITLE "5:cjc004_6402"
    INDEX 01 00:19:67
  TRACK 18 AUDIO
    TITLE "0:"
    INDEX 01 00:25:33
  TRACK 19 AUDIO
    TITLE "3:cjc004_6403"
    INDEX 01 00:26:18
  TRACK 20 AUDIO
    TITLE "0:"
    INDEX 01 00:27:30
  TRACK 21 AUDIO
    TITLE "4:cjc004_6404"
    INDEX 01 00:27:63
  TRACK 22 AUDIO
    TITLE "0:"
    INDEX 01 00:29:01
  TRACK 23 AUDIO
    TITLE "5:cjc004_6405"
    INDEX 01 00:29:29
  TRACK 24 AUDIO
    TITLE "0:"
    INDEX 01 00:32:66
  TRACK 25 AUDIO
    TITLE "3:cjc004_6406"
    INDEX 01 00:33:54
  TRACK 26 AUDIO
    TITLE "0:"
    INDEX 01 00:35:04
  TRACK 27 AUDIO
    TITLE "4:cjc004_6407"
    INDEX 01 00:35:35
  TRACK 28 AUDIO
    TITLE "0:"
    INDEX 01 00:36:50
  TRACK 29 AUDIO
    TITLE "5:cjc004_6408"
    INDEX 01 00:37:01
  TRACK 30 AUDIO
    TITLE "0:"
    INDEX 01 00:41:67
  TRACK 31 AUDIO
    TITLE "3:cjc004_6409"
    INDEX 01 00:42:39
  TRACK 32 AUDIO
    TITLE "0:"
    INDEX 01 00:43:46
  TRACK 33 AUDIO
    TITLE "4:cjc004_6410"
    INDEX 01 00:44:09
  TRACK 34 AUDIO
    TITLE "0:"
    INDEX 01 00:45:16
  TRACK 35 AUDIO
    TITLE "5:cjc004_6411"
    INDEX 01 00:45:43
  TRACK 36 AUDIO
    TITLE "0:"
    INDEX 01 00:51:46
  TRACK 37 AUDIO
    TITLE "3:cjc004_6412"
    INDEX 01 00:52:24
  TRACK 38 AUDIO
    TITLE "0:"
    INDEX 01 00:53:39
  TRACK 39 AUDIO
    TITLE "4:cjc004_6413"
    INDEX 01 00:53:64
  TRACK 40 AUDIO
    TITLE "0:"
    INDEX 01 00:55:16
  TRACK 41 AUDIO
    TITLE "5:cjc004_6414"
    INDEX 01 00:55:42
  TRACK 42 AUDIO
    TITLE "0:"
    INDEX 01 01:00:13
  TRACK 43 AUDIO
    TITLE "3:cjc004_6415"
    INDEX 01 01:00:68
  TRACK 44 AUDIO
    TITLE "0:"
    INDEX 01 01:02:08
  TRACK 45 AUDIO
    TITLE "4:cjc004_6416"
    INDEX 01 01:02:34
  TRACK 46 AUDIO
    TITLE "0:"
    INDEX 01 01:03:67
  TRACK 47 AUDIO
    TITLE "5:cjc004_6417"
    INDEX 01 01:04:15
  TRACK 48 AUDIO
    TITLE "0:"
    INDEX 01 01:09:03
  TRACK 49 AUDIO
    TITLE "3:cjc004_6418"
    INDEX 01 01:09:57
  TRACK 50 AUDIO
    TITLE "0:"
    INDEX 01 01:10:73
  TRACK 51 AUDIO
    TITLE "4:cjc004_6419"
    INDEX 01 01:11:25
  TRACK 52 AUDIO
    TITLE "0:"
    INDEX 01 01:12:32
  TRACK 53 AUDIO
    TITLE "5:cjc004_6420"
    INDEX 01 01:12:54
  TRACK 54 AUDIO
    TITLE "0:"
    INDEX 01 01:17:02
  TRACK 55 AUDIO
    TITLE "3:cjc004_6421"
    INDEX 01 01:17:57
  TRACK 56 AUDIO
    TITLE "0:"
    INDEX 01 01:18:66
  TRACK 57 AUDIO
    TITLE "4:cjc004_6422"
    INDEX 01 01:19:21
  TRACK 58 AUDIO
    TITLE "0:"
    INDEX 01 01:20:24
  TRACK 59 AUDIO
    TITLE "5:cjc004_6423"
    INDEX 01 01:20:51
  TRACK 60 AUDIO
    TITLE "0:"
    INDEX 01 01:26:70
